<svg xmlns:inkscape="http://www.inkscape.org/namespaces/inkscape" xmlns:sodipodi="http://sodipodi.sourceforge.net/DTD/sodipodi-0.dtd" xmlns="http://www.w3.org/2000/svg" xmlns:svg="http://www.w3.org/2000/svg" width="44.787498mm" height="44.669044mm" viewBox="0 0 44.787498 44.669044" id="svg5" inkscape:version="1.1 (c4e8f9e, 2021-05-24)" sodipodi:docname="Logo_COCO.svg"><defs id="defs2"></defs><g inkscape:label="Ebene 1" inkscape:groupmode="layer" id="layer1" transform="translate(-107.43846,-13.437705)"><path style="fill:#000000;stroke-width:0.264583" d="m 126.61447,57.755879 c -1.37206,-0.435065 -3.21062,-1.38312 -4.31931,-2.227265 -1.73813,-1.323385 -3.69439,-4.621832 -4.11279,-6.934563 -0.16268,-0.899223 -0.23576,-0.951066 -1.9706,-1.397971 -5.08584,-1.310145 -8.77331,-6.112759 -8.77331,-11.426508 0,-5.278939 3.72078,-10.124945 8.77331,-11.426508 1.73484,-0.446904 1.80792,-0.498749 1.9706,-1.397971 0.6374,-3.523265 3.21681,-6.787424 6.65313,-8.419325 1.72514,-0.819265 2.34448,-0.97123 4.34886,-1.067061 3.82471,-0.182861 6.4191,0.81571 9.0765,3.493506 1.73055,1.74383 2.36184,2.844895 3.04585,5.312435 0.43172,1.557409 0.45195,1.580149 1.68529,1.894777 4.78645,1.221037 8.46286,5.209955 9.11548,9.890355 0.855,6.131807 -2.99365,11.769075 -9.08368,13.305227 -1.24028,0.312846 -1.28053,0.354844 -1.62042,1.690884 -0.58638,2.304923 -1.46137,3.848626 -3.13943,5.53875 -2.52632,2.544469 -4.93747,3.546452 -8.47448,3.52166 -1.16416,-0.0081 -2.59291,-0.165849 -3.175,-0.350422 z m 7.16424,-3.062219 c 1.91899,-0.865865 3.47247,-2.403671 4.50115,-4.455726 0.66176,-1.320128 0.75373,-1.794592 0.75305,-3.885028 -7.9e-4,-2.059096 -0.0996,-2.584929 -0.73123,-3.886769 -0.93959,-1.936581 -3.13667,-3.965131 -5.08343,-4.69351 -1.82568,-0.683075 -2.23815,-0.687041 -2.23815,-0.02152 0,0.289481 -0.23807,1.152684 -0.52903,1.918229 -0.29097,0.765546 -0.5291,1.421668 -0.52917,1.458048 -7e-5,0.03638 0.26776,0.06876 0.59518,0.07196 1.0159,0.0099 2.74152,0.953124 3.4549,1.888411 1.04435,1.369205 1.42632,3.116598 1.01635,4.649425 -0.72655,2.716485 -2.80134,4.190587 -5.61207,3.987276 -1.10582,-0.07999 -1.81398,-0.308478 -2.56142,-0.826458 -1.09761,-0.760642 -2.18474,-2.407071 -2.18474,-3.308728 0,-0.788509 -0.48154,-0.964597 -1.10209,-0.403008 -1.95627,1.770398 -1.66536,4.784794 0.63078,6.536148 2.72809,2.080813 6.35032,2.446522 9.61992,0.971253 z m -2.04568,-4.923502 c 1.66702,-0.995082 2.31744,-3.061922 1.51539,-4.815453 -0.6012,-1.314406 -1.55585,-1.969154 -3.08539,-2.116125 -2.96433,-0.284834 -4.962,2.765409 -3.57179,5.453769 0.8854,1.712183 3.49342,2.461755 5.14179,1.477809 z m -9.81224,-5.09688 c 3.30621,-1.02901 5.85236,-3.69157 6.52882,-6.827335 0.17541,-0.813094 0.15197,-0.838772 -0.93295,-1.022067 -0.61208,-0.10341 -1.50193,-0.350576 -1.97743,-0.549256 l -0.86456,-0.361237 -0.18296,1.082895 c -0.13339,0.789525 -0.51574,1.426393 -1.41134,2.350834 -2.03407,2.099553 -4.35172,2.344605 -6.80514,0.719529 -3.68292,-2.439461 -2.67737,-8.18698 1.6563,-9.467187 1.09129,-0.322376 1.10086,-0.335731 0.69014,-0.962578 -0.76231,-1.163431 -2.67166,-1.790093 -4.18284,-1.372837 -1.32041,0.364583 -2.3026,1.307762 -3.32452,3.192458 -0.85759,1.581654 -0.90399,1.803066 -0.9038,4.313075 1.9e-4,2.374448 0.0748,2.787309 0.72711,4.025128 0.96557,1.832155 2.12669,3.118019 3.58976,3.975436 2.40224,1.407803 4.82215,1.703409 7.39341,0.903142 z m 24.4402,-1.829187 c 0.96147,-0.559075 2.53677,-3.034326 3.04608,-4.786291 0.5719,-1.967273 0.35382,-4.088253 -0.63835,-6.208483 -0.98464,-2.104123 -2.36516,-3.470443 -4.54906,-4.502278 -1.45752,-0.688643 -2.0228,-0.808617 -3.83645,-0.814248 -1.86143,-0.0058 -2.34603,0.09946 -3.88035,0.842704 -2.54397,1.232333 -4.59307,3.788288 -5.07918,6.335569 -0.15664,0.820827 -0.12184,0.862326 0.95369,1.137416 0.61395,0.157029 1.463,0.399285 1.88678,0.538347 0.42378,0.139062 0.78926,0.222537 0.81218,0.185501 0.0229,-0.03704 0.18758,-0.575329 0.36591,-1.196205 0.37394,-1.301933 1.60108,-2.809811 2.78703,-3.424635 0.45134,-0.233985 1.47546,-0.434225 2.27583,-0.444977 1.7753,-0.02385 3.21046,0.655266 4.34372,2.055452 0.67733,0.836862 0.81559,1.263644 0.90141,2.782448 0.0812,1.436835 -0.009,2.010206 -0.45277,2.880174 -0.67395,1.321054 -1.90004,2.290226 -3.4033,2.690173 -0.61846,0.164541 -1.12448,0.392887 -1.12448,0.507433 0,0.411994 1.29303,1.41124 2.29002,1.769719 1.10981,0.399042 2.21759,0.282329 3.30129,-0.347819 z M 121.34552,38.95402 c 2.86187,-1.875171 1.82844,-6.381851 -1.59065,-6.936694 -1.23401,-0.200251 -3.20152,0.758029 -3.75537,1.829055 -0.57515,1.112216 -0.54998,2.84751 0.0566,3.899205 0.97635,1.692934 3.62612,2.298304 5.28947,1.208434 z m 20.91455,0.220705 c 1.00865,-0.478634 2.21719,-2.282777 2.20797,-3.296107 -0.0122,-1.342111 -0.93563,-2.783376 -2.16439,-3.378209 -1.36874,-0.662598 -2.01976,-0.703069 -3.22292,-0.200355 -1.99379,0.833055 -2.88764,3.695996 -1.70279,5.453893 1.14094,1.692754 3.10468,2.264236 4.88213,1.420778 z m -13.22128,-6.139002 c 0.1694,-0.679196 0.38872,-1.491314 0.48738,-1.804707 0.18617,-0.591342 0.12398,-0.632453 -1.50224,-0.993025 -0.99821,-0.221328 -2.26431,-1.361418 -2.90368,-2.614693 -0.43031,-0.843474 -0.52419,-1.436187 -0.44618,-2.816864 0.0854,-1.510531 0.21959,-1.898907 0.98588,-2.852453 1.12694,-1.402327 2.43106,-2.032746 4.12952,-1.99624 1.77884,0.03823 2.5635,0.378007 4.0422,1.750326 1.52815,1.418218 2.59367,1.981605 4.1516,2.195143 l 1.19145,0.163306 -0.41837,-1.424514 c -0.56205,-1.913734 -1.18339,-2.869247 -2.86543,-4.406535 -2.54369,-2.324795 -6.68687,-2.988257 -9.70613,-1.554279 -6.18408,2.937098 -7.58288,10.764567 -2.72404,15.24329 1.56795,1.445285 4.60794,2.898678 5.13792,2.456396 0.0727,-0.06064 0.27071,-0.665956 0.44012,-1.345151 z m 2.67133,-4.540764 c 1.82269,-1.111306 2.37054,-3.099925 1.38578,-5.030206 -1.18005,-2.313092 -4.28642,-2.667296 -6.02513,-0.687016 -1.08536,1.236161 -1.27831,2.498398 -0.61211,4.004448 0.87507,1.978246 3.4426,2.81565 5.25146,1.712774 z" id="path854"></path></g></svg>